<?xml version="1.0" standalone="no"?>
<!DOCTYPE svg PUBLIC "-//W3C//DTD SVG 20010904//EN"
 "http://www.w3.org/TR/2001/REC-SVG-20010904/DTD/svg10.dtd">
<svg version="1.0" xmlns="http://www.w3.org/2000/svg"
 width="32.000000pt" height="32.000000pt" viewBox="0 0 32.000000 32.000000"
 preserveAspectRatio="xMidYMid meet">

<g transform="translate(0.000000,32.000000) scale(0.100000,-0.100000)"
fill="#000000" stroke="none">
<path d="M232 297 c-7 -8 -8 -18 -4 -22 4 -5 2 -5 -4 -2 -19 11 -37 -18 -21
-32 8 -6 17 -8 20 -4 4 3 7 -1 7 -10 0 -11 8 -17 21 -17 20 0 21 4 15 43 -8
50 -19 63 -34 44z"/>
<path d="M76 275 c-9 -24 -7 -65 3 -65 13 0 23 49 13 66 -8 15 -10 14 -16 -1z"/>
<path d="M166 215 c8 -33 7 -60 -4 -120 -13 -71 -9 -76 46 -48 56 28 74 53 40
54 l-23 0 23 9 c12 5 22 17 22 27 -1 17 -1 17 -11 0 -6 -9 -15 -15 -20 -11 -5
3 -21 -2 -34 -10 -14 -9 -25 -13 -25 -8 0 14 36 43 43 35 10 -9 46 32 39 43
-4 5 -19 15 -34 21 -16 7 -28 17 -28 23 0 5 -9 10 -20 10 -17 0 -19 -5 -14
-25z"/>
<path d="M105 141 c6 -11 2 -13 -19 -9 -36 7 -33 1 11 -17 45 -19 54 -12 24
18 -13 12 -20 16 -16 8z"/>
</g>
</svg>
